<svg xmlns="http://www.w3.org/2000/svg" viewBox="0 0 231 110.51"><defs><style>.a{fill:#fc0;}.b{fill:#069;}.c{font-size:18px;fill:#fff;font-family:Bangla MN;white-space:pre;}.d{font-size:23.79px;fill:#5a5a5a;font-family:Arial Black;}.e{letter-spacing:-1.13px;}</style></defs><title>Logo Lema Total Impex</title><path class="a" d="M659.46,588.27l20,31.25a26.73,26.73,0,0,0,.5-5.15h0A27,27,0,0,0,659.46,588.27Z" transform="translate(-525 -587.56)"/><path class="a" d="M650.25,587.63c-5.09.53-7.34,1.53-11.19,4.52l18.53,27.36H647.17c0.07,0.34,1.5,1.6,1.5,2,0,1.92,0,3.83,0,5.75,0.1,1.69.11,3.38,0.09,5.07,0,1.08,0,2.16-.06,3.24a5.18,5.18,0,0,1,.29,1.77,26.71,26.71,0,0,1-.17,3c0,0.18-.06.36-0.1,0.54a26.53,26.53,0,0,0,4.32.36h0a26.93,26.93,0,0,0,23.06-13.12Z" transform="translate(-525 -587.56)"/><path class="a" d="M654.91,587.56l23.25,36.37q0.42-1.1.75-2.25l-21.64-33.85C656.49,587.7,655.71,587.61,654.91,587.56Z" transform="translate(-525 -587.56)"/><rect class="b" y="88.44" width="230" height="19"/><text class="c" transform="translate(10.87 104.68)"> PANOURI RADIANTE</text><text class="d" transform="translate(1.26 83.97) scale(0.88 1)">LEMA <tspan x="81.93" y="0">T</tspan><tspan x="98.29" y="0">O</tspan><tspan class="e" x="117.49" y="0">T</tspan><tspan x="133.05" y="0">AL IMPEX</tspan></text><rect class="b" x="65" y="54.44" width="21.33" height="8.67"/><polygon class="b" points="128.67 55.44 121.81 55.44 121.88 52.78 89 52.78 89 62.78 155.33 62.78 155.33 55.44 128.67 55.44"/><polygon class="b" points="127 62.11 118.67 62.11 118.67 27.94 127 30.94 127 62.11"/><path class="b" d="M650.61,616.32l4.05,1.5-13.33-18.33-3.33-.81Z" transform="translate(-525 -587.56)"/><path class="b" d="M635.53,598.08l-3.92-.95,11.82,16.53,3.09,1.14Z" transform="translate(-525 -587.56)"/><path class="b" d="M636.24,611l3.21,1.19-10.28-15.65-4-1Z" transform="translate(-525 -587.56)"/><path class="b" d="M622.82,595l-2.16-.52,9.67,14.33c0.71,0.26,1.81.83,2.48,1.08Z" transform="translate(-525 -587.56)"/><polygon class="b" points="91 40.01 89 42.26 89 62.44 91 62.44 91 40.01"/><polyline class="a" points="69.83 29.86 85.33 45.03 116 11.69 113.09 10.88 88.69 33.24 109.22 9.8 106.08 8.92 88.92 25.19 102.79 8 100.14 7.26 88 17.36 97.15 6.42 93.33 5.36"/><rect class="b" x="102.63" y="37.32" width="7" height="14.75"/></svg>